<svg width="203" height="33" viewBox="0 0 203 33" fill="none" xmlns="http://www.w3.org/2000/svg">
<path d="M43.174 3.88415C43.1466 3.90965 43.1143 3.92936 43.0791 3.94207C43.0438 3.95479 43.0064 3.96026 42.969 3.95815H36.514C36.452 3.95815 36.42 3.98915 36.42 4.05115V8.00215C36.42 8.06415 36.451 8.09515 36.514 8.09515H40.91C40.996 8.09515 41.064 8.12015 41.113 8.16915C41.163 8.21915 41.187 8.28715 41.187 8.37315V9.35615C41.1892 9.3934 41.1838 9.43071 41.1711 9.46578C41.1583 9.50086 41.1386 9.53297 41.113 9.56015C41.086 9.58574 41.0541 9.60552 41.0192 9.61825C40.9843 9.63098 40.9471 9.63639 40.91 9.63415H36.514C36.452 9.63415 36.42 9.66515 36.42 9.72715V15.1251C36.4223 15.1624 36.417 15.1997 36.4042 15.2348C36.3915 15.2699 36.3717 15.302 36.346 15.3291C36.319 15.3547 36.2871 15.3745 36.2522 15.3873C36.2173 15.4 36.1801 15.4054 36.143 15.4031H34.918C34.8806 15.4054 34.8431 15.4 34.8079 15.3872C34.7726 15.3745 34.7404 15.3548 34.713 15.3291C34.6877 15.3019 34.6681 15.2697 34.6556 15.2346C34.643 15.1996 34.6377 15.1623 34.64 15.1251V2.69515C34.64 2.60915 34.664 2.54115 34.713 2.49115C34.7405 2.46573 34.7728 2.44609 34.808 2.43338C34.8432 2.42067 34.8806 2.41515 34.918 2.41715H42.969C43.056 2.41715 43.123 2.44215 43.174 2.49115C43.1993 2.51851 43.2189 2.55066 43.2316 2.58569C43.2443 2.62072 43.2499 2.65793 43.248 2.69515V3.67815C43.2501 3.71569 43.2447 3.75328 43.232 3.78868C43.2192 3.82407 43.1995 3.85654 43.174 3.88415V3.88415ZM50.168 6.07315C50.303 6.14715 50.354 6.26515 50.316 6.42615L50.056 7.63215C50.042 7.75615 49.982 7.81815 49.87 7.81815C49.82 7.81995 49.77 7.81353 49.722 7.79915C49.518 7.7344 49.305 7.703 49.091 7.70615C48.9976 7.70417 48.9042 7.71053 48.812 7.72515C48.231 7.75015 47.751 7.95115 47.374 8.32915C46.997 8.70615 46.809 9.19815 46.809 9.80415V15.1281C46.8113 15.1654 46.806 15.2027 46.7932 15.2378C46.7805 15.2729 46.7607 15.305 46.735 15.3321C46.7078 15.3577 46.6757 15.3774 46.6406 15.3901C46.6055 15.4028 46.5682 15.4083 46.531 15.4061H45.306C45.2689 15.4084 45.2317 15.403 45.1968 15.3903C45.1619 15.3775 45.13 15.3577 45.103 15.3321C45.052 15.2831 45.029 15.2151 45.029 15.1281V6.24015C45.029 6.15415 45.052 6.08615 45.103 6.03715C45.13 6.01155 45.1619 5.99177 45.1968 5.97904C45.2317 5.96631 45.2689 5.9609 45.306 5.96315H46.531C46.617 5.96315 46.685 5.98715 46.735 6.03715C46.785 6.08615 46.809 6.15415 46.809 6.24015V7.09415C46.809 7.14415 46.818 7.17215 46.837 7.17815C46.855 7.18415 46.876 7.16815 46.901 7.13115C47.458 6.29015 48.212 5.87015 49.165 5.87015C49.537 5.87015 49.871 5.93715 50.168 6.07315ZM53.701 14.8581C53.027 14.3941 52.554 13.7481 52.282 12.9191C52.059 12.2521 51.948 11.4971 51.948 10.6561C51.948 9.77815 52.052 9.03615 52.263 8.42915C52.534 7.61315 53.011 6.97315 53.691 6.50915C54.372 6.04515 55.181 5.81415 56.122 5.81415C57.013 5.81415 57.789 6.04515 58.451 6.50915C59.111 6.97315 59.585 7.60715 59.869 8.41015C60.092 9.04115 60.203 9.78315 60.203 10.6371C60.203 11.5021 60.092 12.2631 59.869 12.9181C59.598 13.7471 59.127 14.3941 58.46 14.8571C57.792 15.3211 57.006 15.5521 56.104 15.5521C55.176 15.5531 54.375 15.3221 53.701 14.8581V14.8581ZM57.402 13.5961C57.773 13.3181 58.039 12.9251 58.2 12.4171C58.336 11.9471 58.404 11.3661 58.404 10.6741C58.404 9.98215 58.342 9.40615 58.218 8.94815C58.057 8.44115 57.791 8.04915 57.42 7.77015C57.049 7.49115 56.597 7.35215 56.066 7.35215C55.558 7.35215 55.121 7.49215 54.75 7.77015C54.379 8.04815 54.112 8.44115 53.951 8.94815C53.815 9.38115 53.748 9.95615 53.748 10.6741C53.748 11.3911 53.815 11.9731 53.951 12.4171C54.099 12.9251 54.363 13.3171 54.74 13.5961C55.117 13.8751 55.572 14.0131 56.103 14.0131C56.5703 14.0226 57.0275 13.8758 57.402 13.5961ZM69.609 6.71315C70.203 7.30115 70.5 8.09515 70.5 9.09715V15.1261C70.5021 15.1634 70.4966 15.2007 70.4839 15.2357C70.4712 15.2708 70.4515 15.3029 70.426 15.3301C70.3986 15.3558 70.3664 15.3755 70.3311 15.3882C70.2959 15.401 70.2584 15.4064 70.221 15.4041H68.997C68.9597 15.4065 68.9224 15.4011 68.8873 15.3884C68.8522 15.3756 68.8201 15.3558 68.793 15.3301C68.7673 15.303 68.7475 15.2709 68.7348 15.2358C68.722 15.2007 68.7167 15.1634 68.719 15.1261V9.45015C68.719 8.83215 68.539 8.33115 68.181 7.94715C67.823 7.56415 67.346 7.37215 66.752 7.37215C66.221 7.37215 65.772 7.53015 65.407 7.84615C65.042 8.16115 64.828 8.58515 64.767 9.11715V15.1281C64.7691 15.1654 64.7636 15.2027 64.7509 15.2377C64.7382 15.2728 64.7185 15.3049 64.693 15.3321C64.6656 15.3577 64.6334 15.3775 64.5981 15.3902C64.5629 15.403 64.5254 15.4084 64.488 15.4061H63.263C63.2259 15.4084 63.1887 15.403 63.1538 15.3903C63.1189 15.3775 63.087 15.3577 63.06 15.3321C63.0343 15.305 63.0145 15.2729 63.0018 15.2378C62.989 15.2027 62.9837 15.1654 62.986 15.1281V6.24015C62.986 6.15415 63.01 6.08615 63.06 6.03715C63.087 6.01155 63.1189 5.99177 63.1538 5.97904C63.1887 5.96631 63.2259 5.9609 63.263 5.96315H64.488C64.575 5.96315 64.643 5.98715 64.693 6.03715C64.7184 6.06423 64.7381 6.09619 64.7508 6.13107C64.7635 6.16596 64.769 6.20307 64.767 6.24015V6.76015C64.767 6.79715 64.779 6.82215 64.804 6.83415C64.827 6.84715 64.847 6.84115 64.859 6.81515C65.379 6.16015 66.158 5.83315 67.197 5.83315C68.211 5.83315 69.016 6.12615 69.609 6.71315V6.71315ZM78.087 7.35315C78.0598 7.37867 78.0277 7.3984 77.9926 7.41112C77.9575 7.42384 77.9202 7.42929 77.883 7.42715H75.99C75.928 7.42715 75.898 7.45815 75.898 7.52015V12.3621C75.898 12.8941 76.011 13.2711 76.241 13.4941C76.47 13.7171 76.838 13.8281 77.345 13.8281H77.79C77.877 13.8281 77.945 13.8531 77.994 13.9021C78.0193 13.9295 78.0389 13.9617 78.0516 13.9967C78.0643 14.0317 78.0699 14.0689 78.068 14.1061V15.0711C78.068 15.2451 77.975 15.3431 77.79 15.3681L77.029 15.3871C76.077 15.3871 75.365 15.2201 74.896 14.8861C74.425 14.5521 74.191 13.9281 74.191 13.0121V7.52015C74.191 7.45815 74.16 7.42715 74.097 7.42715H73.077C73.0397 7.42935 73.0024 7.42393 72.9674 7.4112C72.9323 7.39848 72.9002 7.37872 72.873 7.35315C72.8473 7.32604 72.8275 7.29394 72.8148 7.25885C72.802 7.22375 72.7967 7.18641 72.799 7.14915V6.24015C72.799 6.15415 72.823 6.08615 72.873 6.03715C72.9002 6.01157 72.9323 5.99181 72.9674 5.97909C73.0024 5.96636 73.0397 5.96094 73.077 5.96315H74.097C74.159 5.96315 74.191 5.93215 74.191 5.87015V3.79215C74.191 3.70515 74.215 3.63815 74.265 3.58815C74.2919 3.56255 74.3239 3.54277 74.3588 3.53004C74.3937 3.51731 74.4309 3.5119 74.468 3.51415H75.618C75.705 3.51415 75.772 3.53815 75.823 3.58815C75.872 3.63815 75.897 3.70515 75.897 3.79215V5.87015C75.897 5.93215 75.927 5.96315 75.989 5.96315H77.882C77.968 5.96315 78.036 5.98715 78.086 6.03715C78.136 6.08615 78.16 6.15415 78.16 6.24015V7.14915C78.1627 7.18636 78.1576 7.22372 78.145 7.25885C78.1325 7.29398 78.1127 7.3261 78.087 7.35315V7.35315ZM86.714 12.8631C86.776 12.7521 86.844 12.6961 86.918 12.6961C86.98 12.6961 87.035 12.7151 87.084 12.7521L87.846 13.2161C87.945 13.2781 87.994 13.3591 87.994 13.4571L87.957 13.6051C87.6281 14.206 87.1358 14.7015 86.537 15.0341C85.926 15.3811 85.211 15.5541 84.394 15.5541C83.516 15.5541 82.774 15.3601 82.167 14.9701C81.562 14.5801 81.104 14.0211 80.795 13.2901C80.485 12.5361 80.331 11.6511 80.331 10.6381C80.331 9.73515 80.399 9.04915 80.535 8.57815C80.758 7.72415 81.202 7.05115 81.87 6.55615C82.538 6.06215 83.349 5.81515 84.301 5.81515C85.476 5.81515 86.372 6.12115 86.991 6.73315C87.609 7.34515 88.011 8.23315 88.196 9.39515C88.258 9.85315 88.301 10.4101 88.327 11.0651C88.327 11.2511 88.233 11.3431 88.048 11.3431H82.187C82.125 11.3431 82.093 11.3731 82.093 11.4361C82.118 11.9061 82.161 12.2401 82.224 12.4371C82.359 12.9321 82.632 13.3221 83.04 13.6061C83.448 13.8911 83.954 14.0331 84.561 14.0331C85.563 14.0201 86.281 13.6301 86.714 12.8631V12.8631ZM82.976 7.74315C82.635 8.00315 82.404 8.36215 82.28 8.81915C82.1826 9.15744 82.1269 9.50635 82.114 9.85815C82.114 9.92015 82.144 9.95115 82.206 9.95115H86.418C86.48 9.95115 86.511 9.92015 86.511 9.85815C86.486 9.45015 86.449 9.14715 86.4 8.94915C86.292 8.49202 86.0344 8.08409 85.668 7.79015C85.303 7.49915 84.848 7.35315 84.304 7.35315C83.76 7.35315 83.315 7.48315 82.976 7.74315V7.74315ZM97.658 6.71315C98.252 7.30115 98.549 8.09515 98.549 9.09715V15.1261C98.5513 15.1634 98.546 15.2007 98.5332 15.2358C98.5205 15.2709 98.5007 15.303 98.475 15.3301C98.448 15.3557 98.4161 15.3755 98.3812 15.3883C98.3463 15.401 98.3091 15.4064 98.272 15.4041H97.047C97.0097 15.4064 96.9724 15.4009 96.9374 15.3882C96.9023 15.3755 96.8702 15.3557 96.843 15.3301C96.8173 15.303 96.7975 15.2709 96.7848 15.2358C96.772 15.2007 96.7667 15.1634 96.769 15.1261V9.45015C96.769 8.83215 96.589 8.33115 96.231 7.94715C95.872 7.56415 95.396 7.37215 94.802 7.37215C94.27 7.37215 93.823 7.53015 93.457 7.84615C93.091 8.16215 92.879 8.58515 92.816 9.11715V15.1281C92.8183 15.1654 92.813 15.2027 92.8002 15.2378C92.7875 15.2729 92.7677 15.305 92.742 15.3321C92.715 15.3577 92.6831 15.3775 92.6482 15.3903C92.6133 15.403 92.5761 15.4084 92.539 15.4061H91.314C91.2767 15.4085 91.2394 15.4031 91.2043 15.3904C91.1692 15.3776 91.1371 15.3578 91.11 15.3321C91.0843 15.305 91.0645 15.2729 91.0518 15.2378C91.039 15.2027 91.0337 15.1654 91.036 15.1281V6.24015C91.036 6.15415 91.06 6.08615 91.11 6.03715C91.1371 6.01147 91.1692 5.99165 91.2043 5.97892C91.2394 5.96619 91.2767 5.96082 91.314 5.96315H92.539C92.625 5.96315 92.693 5.98715 92.742 6.03715C92.792 6.08615 92.816 6.15415 92.816 6.24015V6.76015C92.816 6.79715 92.829 6.82215 92.853 6.83415C92.878 6.84715 92.896 6.84115 92.91 6.81515C93.43 6.16015 94.209 5.83315 95.247 5.83315C96.262 5.83315 97.065 6.12615 97.658 6.71315V6.71315ZM107.381 2.49315C107.408 2.46774 107.44 2.44809 107.475 2.43537C107.51 2.42266 107.547 2.41714 107.584 2.41915H108.809C108.846 2.41729 108.883 2.42287 108.918 2.43558C108.953 2.44829 108.986 2.46786 109.013 2.49315C109.063 2.54315 109.087 2.61115 109.087 2.69715V15.1271C109.089 15.1644 109.084 15.2017 109.071 15.2368C109.058 15.2719 109.039 15.304 109.013 15.3311C108.986 15.3567 108.954 15.3764 108.919 15.3891C108.884 15.4018 108.846 15.4073 108.809 15.4051H107.584C107.547 15.4074 107.51 15.402 107.475 15.3893C107.44 15.3765 107.408 15.3567 107.381 15.3311C107.33 15.2821 107.307 15.2141 107.307 15.1271V14.6451C107.307 14.6081 107.293 14.5831 107.27 14.5711C107.245 14.5591 107.219 14.5651 107.196 14.5901C106.923 14.9001 106.604 15.1381 106.24 15.3051C105.876 15.4711 105.476 15.5551 105.044 15.5551C104.153 15.5551 103.414 15.3351 102.827 14.8971C102.239 14.4581 101.809 13.8361 101.538 13.0321C101.315 12.4141 101.204 11.6231 101.204 10.6581C101.204 9.75515 101.296 9.00715 101.481 8.41315C101.741 7.59715 102.17 6.96015 102.77 6.50215C103.37 6.04515 104.127 5.81615 105.043 5.81615C105.476 5.81615 105.875 5.89615 106.239 6.05715C106.603 6.21715 106.922 6.45315 107.195 6.76115C107.218 6.78615 107.244 6.79515 107.269 6.78915C107.292 6.78315 107.306 6.76115 107.306 6.72415V2.69915C107.307 2.61115 107.33 2.54215 107.381 2.49315ZM107.287 10.6741C107.287 9.65915 107.127 8.86815 106.805 8.29915C106.447 7.66815 105.921 7.35315 105.229 7.35315C104.511 7.35315 103.961 7.65015 103.578 8.24415C103.182 8.86315 102.984 9.67915 102.984 10.6931C102.984 11.6451 103.139 12.4121 103.448 12.9931C103.806 13.6741 104.4 14.0141 105.229 14.0141C105.934 14.0141 106.471 13.6801 106.842 13.0121C107.139 12.4671 107.287 11.6881 107.287 10.6741V10.6741ZM116.656 15.3311C116.63 15.304 116.611 15.2719 116.598 15.2368C116.585 15.2017 116.58 15.1644 116.582 15.1271V2.69715C116.582 2.61115 116.606 2.54315 116.656 2.49315C116.683 2.46774 116.715 2.44809 116.75 2.43537C116.785 2.42266 116.822 2.41714 116.859 2.41915H118.103C118.251 2.41915 118.363 2.48115 118.437 2.60515L121.553 7.57715C121.59 7.65115 121.627 7.65115 121.664 7.57715L124.8 2.60515C124.833 2.54637 124.882 2.4979 124.941 2.46507C125 2.43225 125.067 2.41635 125.134 2.41915H126.376C126.413 2.41729 126.45 2.42287 126.485 2.43558C126.52 2.44829 126.553 2.46786 126.58 2.49315C126.63 2.54315 126.654 2.61115 126.654 2.69715V15.1271C126.656 15.1644 126.651 15.2017 126.638 15.2368C126.625 15.2719 126.606 15.304 126.58 15.3311C126.553 15.3567 126.521 15.3764 126.486 15.3891C126.451 15.4018 126.413 15.4073 126.376 15.4051H125.151C125.114 15.4074 125.077 15.402 125.042 15.3893C125.007 15.3765 124.975 15.3567 124.948 15.3311C124.897 15.2821 124.874 15.2141 124.874 15.1271V5.70315C124.874 5.65315 124.86 5.62615 124.837 5.61915C124.812 5.61315 124.786 5.62915 124.763 5.66615L122.24 9.78415C122.207 9.843 122.158 9.89154 122.099 9.92437C122.04 9.95721 121.973 9.97305 121.906 9.97015H121.312C121.245 9.97305 121.178 9.95721 121.119 9.92437C121.06 9.89154 121.011 9.843 120.978 9.78415L118.474 5.66615C118.449 5.62915 118.423 5.61315 118.4 5.61915C118.375 5.62615 118.363 5.65315 118.363 5.70315V15.1271C118.365 15.1644 118.36 15.2017 118.347 15.2367C118.334 15.2718 118.314 15.3039 118.289 15.3311C118.262 15.3567 118.229 15.3764 118.194 15.3891C118.159 15.4018 118.121 15.4073 118.084 15.4051H116.859C116.822 15.4072 116.785 15.4016 116.75 15.3889C116.715 15.3762 116.683 15.3565 116.656 15.3311V15.3311ZM136.061 12.8631C136.123 12.7521 136.192 12.6961 136.266 12.6961C136.326 12.6958 136.384 12.7155 136.432 12.7521L137.193 13.2161C137.292 13.2781 137.341 13.3591 137.341 13.4571L137.304 13.6051C136.975 14.2057 136.483 14.7011 135.885 15.0341C135.273 15.3811 134.559 15.5541 133.742 15.5541C132.863 15.5541 132.121 15.3601 131.515 14.9701C130.909 14.5801 130.451 14.0211 130.142 13.2901C129.833 12.5361 129.679 11.6511 129.679 10.6381C129.679 9.73515 129.746 9.04915 129.882 8.57815C130.105 7.72415 130.55 7.05115 131.218 6.55615C131.886 6.06215 132.697 5.81515 133.648 5.81515C134.824 5.81515 135.72 6.12115 136.339 6.73315C136.956 7.34515 137.359 8.23315 137.544 9.39515C137.614 9.94947 137.657 10.5067 137.674 11.0651C137.674 11.2511 137.581 11.3431 137.396 11.3431H131.534C131.472 11.3431 131.441 11.3731 131.441 11.4361C131.466 11.9061 131.509 12.2401 131.571 12.4371C131.707 12.9321 131.979 13.3221 132.387 13.6061C132.795 13.8911 133.302 14.0331 133.908 14.0331C134.91 14.0201 135.628 13.6301 136.061 12.8631V12.8631ZM132.322 7.74315C131.982 8.00315 131.75 8.36215 131.627 8.81915C131.529 9.15739 131.473 9.50631 131.46 9.85815C131.46 9.92015 131.49 9.95115 131.553 9.95115H135.764C135.826 9.95115 135.858 9.92015 135.858 9.85815C135.833 9.45015 135.796 9.14715 135.747 8.94915C135.638 8.4921 135.38 8.0843 135.014 7.79015C134.65 7.49915 134.195 7.35315 133.65 7.35315C133.105 7.35315 132.662 7.48315 132.322 7.74315V7.74315ZM147.006 6.71315C147.6 7.30115 147.897 8.09515 147.897 9.09715V15.1261C147.899 15.1634 147.894 15.2007 147.881 15.2358C147.868 15.2709 147.849 15.303 147.823 15.3301C147.796 15.3557 147.764 15.3755 147.729 15.3883C147.694 15.401 147.657 15.4064 147.62 15.4041H146.395C146.358 15.4064 146.32 15.4009 146.285 15.3882C146.25 15.3755 146.218 15.3557 146.191 15.3301C146.165 15.303 146.146 15.2709 146.133 15.2358C146.12 15.2007 146.115 15.1634 146.117 15.1261V9.45015C146.117 8.83215 145.937 8.33115 145.579 7.94715C145.22 7.56415 144.744 7.37215 144.15 7.37215C143.618 7.37215 143.171 7.53015 142.805 7.84615C142.439 8.16215 142.227 8.58515 142.164 9.11715V15.1281C142.166 15.1654 142.161 15.2027 142.148 15.2378C142.135 15.2729 142.116 15.305 142.09 15.3321C142.063 15.3577 142.031 15.3775 141.996 15.3903C141.961 15.403 141.924 15.4084 141.887 15.4061H140.662C140.625 15.4085 140.587 15.4031 140.552 15.3904C140.517 15.3776 140.485 15.3578 140.458 15.3321C140.432 15.305 140.413 15.2729 140.4 15.2378C140.387 15.2027 140.382 15.1654 140.384 15.1281V6.24015C140.384 6.15415 140.408 6.08615 140.458 6.03715C140.485 6.01147 140.517 5.99165 140.552 5.97892C140.587 5.96619 140.625 5.96082 140.662 5.96315H141.887C141.973 5.96315 142.041 5.98715 142.09 6.03715C142.14 6.08615 142.164 6.15415 142.164 6.24015V6.76015C142.164 6.79715 142.177 6.82215 142.201 6.83415C142.226 6.84715 142.244 6.84115 142.258 6.81515C142.778 6.16015 143.557 5.83315 144.595 5.83315C145.609 5.83315 146.413 6.12615 147.006 6.71315V6.71315ZM155.484 7.35315C155.457 7.37882 155.425 7.39864 155.39 7.41137C155.355 7.4241 155.317 7.42947 155.28 7.42715H153.388C153.326 7.42715 153.294 7.45815 153.294 7.52015V12.3621C153.294 12.8941 153.409 13.2711 153.638 13.4941C153.867 13.7171 154.234 13.8281 154.742 13.8281H155.187C155.224 13.8263 155.261 13.8319 155.296 13.8446C155.331 13.8573 155.364 13.8769 155.391 13.9021C155.441 13.9521 155.465 14.0201 155.465 14.1061V15.0711C155.465 15.2451 155.372 15.3431 155.187 15.3681L154.426 15.3871C153.474 15.3871 152.763 15.2201 152.292 14.8861C151.822 14.5521 151.587 13.9281 151.587 13.0121V7.52015C151.587 7.45815 151.557 7.42715 151.495 7.42715H150.474C150.437 7.42947 150.399 7.4241 150.364 7.41137C150.329 7.39864 150.297 7.37882 150.27 7.35315C150.244 7.32604 150.225 7.29394 150.212 7.25885C150.199 7.22375 150.194 7.18641 150.196 7.14915V6.24015C150.196 6.15415 150.22 6.08615 150.27 6.03715C150.297 6.01147 150.329 5.99165 150.364 5.97892C150.399 5.96619 150.437 5.96082 150.474 5.96315H151.495C151.557 5.96315 151.587 5.93215 151.587 5.87015V3.79215C151.587 3.70515 151.612 3.63815 151.661 3.58815C151.688 3.56254 151.721 3.54278 151.756 3.53005C151.791 3.51733 151.829 3.51192 151.866 3.51415H153.016C153.102 3.51415 153.17 3.53815 153.219 3.58815C153.269 3.63815 153.293 3.70515 153.293 3.79215V5.87015C153.293 5.93215 153.324 5.96315 153.387 5.96315H155.279C155.366 5.96315 155.434 5.98715 155.483 6.03715C155.508 6.06423 155.528 6.09619 155.541 6.13107C155.553 6.16596 155.559 6.20307 155.557 6.24015V7.14915C155.56 7.18636 155.555 7.22372 155.542 7.25885C155.529 7.29398 155.51 7.3261 155.484 7.35315V7.35315ZM159.463 14.8581C158.789 14.3941 158.317 13.7481 158.045 12.9191C157.822 12.2521 157.711 11.4971 157.711 10.6561C157.711 9.77815 157.815 9.03615 158.025 8.42915C158.296 7.61315 158.773 6.97315 159.454 6.50915C160.135 6.04515 160.944 5.81415 161.885 5.81415C162.776 5.81415 163.551 6.04515 164.213 6.50915C164.874 6.97315 165.348 7.60715 165.632 8.41015C165.855 9.04115 165.966 9.78315 165.966 10.6371C165.966 11.5021 165.855 12.2631 165.632 12.9181C165.36 13.7471 164.89 14.3941 164.223 14.8571C163.555 15.3211 162.769 15.5521 161.866 15.5521C160.938 15.5531 160.137 15.3221 159.463 14.8581V14.8581ZM163.164 13.5961C163.535 13.3181 163.801 12.9251 163.963 12.4171C164.098 11.9471 164.166 11.3661 164.166 10.6741C164.166 9.98215 164.104 9.40615 163.98 8.94815C163.82 8.44115 163.554 8.04915 163.183 7.77015C162.812 7.49115 162.36 7.35215 161.828 7.35215C161.321 7.35215 160.883 7.49215 160.512 7.77015C160.141 8.04815 159.875 8.44115 159.714 8.94815C159.578 9.38115 159.51 9.95615 159.51 10.6741C159.51 11.3911 159.578 11.9731 159.714 12.4171C159.862 12.9251 160.125 13.3171 160.502 13.5961C160.879 13.8751 161.334 14.0131 161.865 14.0131C162.332 14.0226 162.789 13.8758 163.164 13.5961V13.5961ZM173.888 6.07315C174.024 6.14715 174.074 6.26515 174.036 6.42615L173.776 7.63215C173.763 7.75615 173.702 7.81815 173.59 7.81815C173.54 7.81995 173.49 7.81353 173.442 7.79915C173.238 7.7344 173.025 7.703 172.811 7.70615C172.687 7.70615 172.595 7.71315 172.533 7.72515C171.951 7.75015 171.472 7.95115 171.095 8.32915C170.718 8.70615 170.529 9.19815 170.529 9.80415V15.1281C170.531 15.1654 170.526 15.2027 170.513 15.2378C170.5 15.2729 170.481 15.305 170.455 15.3321C170.428 15.3577 170.396 15.3775 170.361 15.3903C170.326 15.403 170.289 15.4084 170.252 15.4061H169.027C168.99 15.4085 168.952 15.4031 168.917 15.3904C168.882 15.3776 168.85 15.3578 168.823 15.3321C168.797 15.305 168.778 15.2729 168.765 15.2378C168.752 15.2027 168.747 15.1654 168.749 15.1281V6.24015C168.749 6.15415 168.773 6.08615 168.823 6.03715C168.85 6.01147 168.882 5.99165 168.917 5.97892C168.952 5.96619 168.99 5.96082 169.027 5.96315H170.252C170.338 5.96315 170.406 5.98715 170.455 6.03715C170.505 6.08615 170.529 6.15415 170.529 6.24015V7.09415C170.529 7.14415 170.539 7.17215 170.557 7.17815C170.575 7.18415 170.597 7.16815 170.622 7.13115C171.179 6.29015 171.933 5.87015 172.885 5.87015C173.257 5.87015 173.591 5.93715 173.888 6.07315Z" fill="#1C2122"/>
<path d="M24.762 12.1671C24.6562 12.1671 24.5517 12.145 24.455 12.1021L18.017 9.21906C17.885 9.15972 17.7729 9.0635 17.6943 8.94198C17.6157 8.82045 17.5739 8.6788 17.5739 8.53406C17.5739 8.38932 17.6157 8.24766 17.6943 8.12613C17.7729 8.00461 17.885 7.90839 18.017 7.84906L24.455 4.97606C24.6367 4.89538 24.843 4.88997 25.0287 4.96099C25.2144 5.03202 25.3645 5.1737 25.446 5.35506C25.5266 5.53691 25.5319 5.7433 25.4607 5.92903C25.3894 6.11477 25.2475 6.26472 25.066 6.34606L20.161 8.53506L25.067 10.7321C25.2239 10.802 25.352 10.9237 25.4299 11.0767C25.5079 11.2298 25.5309 11.405 25.4952 11.573C25.4595 11.741 25.3672 11.8917 25.2337 11.9998C25.1003 12.1079 24.9338 12.167 24.762 12.1671V12.1671Z" fill="#67BECE"/>
<path d="M15.988 22.6261C8.90999 22.6261 2.72199 17.8481 0.942994 11.0061C0.892868 10.8137 0.921231 10.6092 1.02184 10.4377C1.12246 10.2662 1.28708 10.1417 1.47949 10.0916C1.67191 10.0415 1.87635 10.0698 2.04786 10.1704C2.21936 10.2711 2.34387 10.4357 2.39399 10.6281C3.17878 13.6356 4.93908 16.2977 7.39909 18.1975C9.8591 20.0972 12.8798 21.1272 15.988 21.1261C16.1869 21.1261 16.3777 21.2051 16.5183 21.3458C16.659 21.4864 16.738 21.6772 16.738 21.8761C16.738 22.075 16.659 22.2658 16.5183 22.4064C16.3777 22.5471 16.1869 22.6261 15.988 22.6261V22.6261Z" fill="#3F54A3"/>
<path d="M13.404 16.3981C13.2051 16.3981 13.0143 16.3191 12.8737 16.1784C12.733 16.0378 12.654 15.847 12.654 15.6481V1.39111C12.654 1.1922 12.733 1.00144 12.8737 0.860783C13.0143 0.720131 13.2051 0.641113 13.404 0.641113C13.6029 0.641113 13.7937 0.720131 13.9343 0.860783C14.075 1.00144 14.154 1.1922 14.154 1.39111V15.6481C14.154 15.847 14.075 16.0378 13.9343 16.1784C13.7937 16.3191 13.6029 16.3981 13.404 16.3981Z" fill="#67BECE"/>
<path d="M41.71 24.7982C41.6115 24.7984 41.5139 24.7791 41.4229 24.7413C41.332 24.7036 41.2494 24.6481 41.18 24.5782L37.907 21.3042L34.634 24.5772C34.5643 24.6469 34.4816 24.7021 34.3906 24.7398C34.2996 24.7775 34.202 24.7969 34.1035 24.7969C34.005 24.7969 33.9074 24.7775 33.8164 24.7398C33.7254 24.7021 33.6427 24.6469 33.573 24.5772C33.5033 24.5075 33.4481 24.4248 33.4104 24.3338C33.3727 24.2428 33.3533 24.1452 33.3533 24.0467C33.3533 23.9482 33.3727 23.8506 33.4104 23.7596C33.4481 23.6686 33.5033 23.5859 33.573 23.5162L37.377 19.7122C37.4466 19.6425 37.5292 19.5873 37.6201 19.5495C37.7111 19.5118 37.8085 19.4924 37.907 19.4924C38.0054 19.4924 38.1029 19.5118 38.1939 19.5495C38.2848 19.5873 38.3674 19.6425 38.437 19.7122L42.241 23.5172C42.3462 23.6221 42.4178 23.7558 42.4469 23.9015C42.4759 24.0472 42.461 24.1982 42.4042 24.3354C42.3473 24.4726 42.251 24.5898 42.1274 24.6722C42.0038 24.7546 41.8585 24.7985 41.71 24.7982V24.7982Z" fill="#F9C7C5"/>
<path d="M49.316 24.7982C49.2175 24.7984 49.12 24.779 49.029 24.7412C48.938 24.7035 48.8554 24.6481 48.786 24.5782L45.513 21.3042L42.241 24.5772C42.1713 24.6469 42.0886 24.7022 41.9976 24.7399C41.9066 24.7776 41.809 24.797 41.7105 24.797C41.612 24.797 41.5144 24.7776 41.4234 24.7399C41.3324 24.7022 41.2497 24.6469 41.18 24.5772C41.1103 24.5076 41.0551 24.4249 41.0174 24.3338C40.9797 24.2428 40.9603 24.1453 40.9603 24.0467C40.9603 23.9482 40.9797 23.8507 41.0174 23.7596C41.0551 23.6686 41.1103 23.5859 41.18 23.5162L44.983 19.7122C45.1265 19.5769 45.3162 19.5015 45.5135 19.5015C45.7107 19.5015 45.9005 19.5769 46.044 19.7122L49.848 23.5172C49.9532 23.6222 50.0249 23.756 50.0539 23.9018C50.0829 24.0476 50.068 24.1986 50.011 24.3359C49.954 24.4731 49.8575 24.5904 49.7337 24.6727C49.61 24.755 49.4646 24.7987 49.316 24.7982V24.7982Z" fill="#F9C7C5"/>
<path d="M56.924 24.7983C56.8253 24.7985 56.7276 24.7792 56.6365 24.7415C56.5453 24.7037 56.4626 24.6482 56.393 24.5783L53.121 21.3043L49.848 24.5773C49.7783 24.6469 49.6956 24.7022 49.6046 24.7399C49.5136 24.7776 49.416 24.797 49.3175 24.797C49.219 24.797 49.1214 24.7776 49.0304 24.7399C48.9394 24.7022 48.8567 24.6469 48.787 24.5773C48.7173 24.5076 48.6621 24.4249 48.6244 24.3339C48.5867 24.2428 48.5673 24.1453 48.5673 24.0468C48.5673 23.9482 48.5867 23.8507 48.6244 23.7597C48.6621 23.6686 48.7173 23.5859 48.787 23.5163L52.591 19.7123C52.7316 19.5718 52.9222 19.4929 53.121 19.4929C53.3197 19.4929 53.5104 19.5718 53.651 19.7123L57.454 23.5173C57.5591 23.6221 57.6307 23.7558 57.6598 23.9013C57.6889 24.0469 57.6741 24.1978 57.6174 24.335C57.5606 24.4722 57.4644 24.5894 57.341 24.6719C57.2176 24.7543 57.0724 24.7983 56.924 24.7983V24.7983Z" fill="#F9C7C5"/>
<path d="M64.529 24.7982C64.4307 24.7983 64.3333 24.779 64.2425 24.7412C64.1517 24.7034 64.0693 24.648 64 24.5782L60.727 21.3042L57.454 24.5772C57.3843 24.6469 57.3016 24.7022 57.2106 24.7399C57.1196 24.7776 57.022 24.797 56.9235 24.797C56.825 24.797 56.7274 24.7776 56.6364 24.7399C56.5454 24.7022 56.4627 24.6469 56.393 24.5772C56.3233 24.5076 56.2681 24.4249 56.2304 24.3338C56.1927 24.2428 56.1733 24.1453 56.1733 24.0467C56.1733 23.9482 56.1927 23.8507 56.2304 23.7596C56.2681 23.6686 56.3233 23.5859 56.393 23.5162L60.196 19.7122C60.3395 19.5769 60.5292 19.5015 60.7265 19.5015C60.9237 19.5015 61.1135 19.5769 61.257 19.7122L65.062 23.5172C65.1673 23.6223 65.239 23.7562 65.268 23.902C65.2969 24.0479 65.2819 24.1991 65.2248 24.3364C65.1677 24.4737 65.071 24.5909 64.9471 24.6731C64.8232 24.7553 64.6777 24.7989 64.529 24.7982V24.7982Z" fill="#F9C7C5"/>
<path d="M72.137 24.7982C72.0385 24.7984 71.941 24.779 71.85 24.7412C71.759 24.7035 71.6764 24.6481 71.607 24.5782L68.333 21.3042L65.062 24.5772C64.9923 24.6469 64.9096 24.7022 64.8186 24.7399C64.7276 24.7776 64.63 24.797 64.5315 24.797C64.433 24.797 64.3354 24.7776 64.2444 24.7399C64.1534 24.7022 64.0707 24.6469 64.001 24.5772C63.9313 24.5076 63.8761 24.4249 63.8384 24.3338C63.8007 24.2428 63.7813 24.1453 63.7813 24.0467C63.7813 23.9482 63.8007 23.8507 63.8384 23.7596C63.8761 23.6686 63.9313 23.5859 64.001 23.5162L67.804 19.7122C67.9475 19.5769 68.1373 19.5015 68.3345 19.5015C68.5317 19.5015 68.7215 19.5769 68.865 19.7122L72.669 23.5172C72.7742 23.6222 72.8459 23.756 72.8749 23.9018C72.9039 24.0476 72.889 24.1986 72.832 24.3359C72.775 24.4731 72.6785 24.5904 72.5548 24.6727C72.431 24.755 72.2856 24.7987 72.137 24.7982V24.7982Z" fill="#F9C7C5"/>
<path d="M79.743 24.7982C79.6445 24.7985 79.5469 24.7792 79.4559 24.7414C79.3649 24.7036 79.2824 24.6482 79.213 24.5782L75.94 21.3042L72.668 24.5772C72.5983 24.6469 72.5156 24.7022 72.4246 24.7399C72.3336 24.7776 72.236 24.797 72.1375 24.797C72.039 24.797 71.9414 24.7776 71.8504 24.7399C71.7594 24.7022 71.6767 24.6469 71.607 24.5772C71.5373 24.5076 71.4821 24.4249 71.4444 24.3338C71.4067 24.2428 71.3873 24.1453 71.3873 24.0467C71.3873 23.9482 71.4067 23.8507 71.4444 23.7596C71.4821 23.6686 71.5373 23.5859 71.607 23.5162L75.41 19.7122C75.5535 19.5769 75.7432 19.5015 75.9405 19.5015C76.1377 19.5015 76.3275 19.5769 76.471 19.7122L80.275 23.5172C80.3802 23.6222 80.4519 23.756 80.4809 23.9018C80.5099 24.0476 80.495 24.1986 80.438 24.3359C80.381 24.4731 80.2845 24.5904 80.1608 24.6727C80.037 24.755 79.8916 24.7987 79.743 24.7982V24.7982Z" fill="#F9C7C5"/>
<path d="M87.35 24.7982C87.2515 24.7984 87.154 24.779 87.063 24.7412C86.972 24.7035 86.8894 24.6481 86.82 24.5782L83.547 21.3042L80.275 24.5772C80.2053 24.6469 80.1226 24.7022 80.0316 24.7399C79.9406 24.7776 79.843 24.797 79.7445 24.797C79.646 24.797 79.5484 24.7776 79.4574 24.7399C79.3664 24.7022 79.2837 24.6469 79.214 24.5772C79.1443 24.5076 79.0891 24.4249 79.0514 24.3338C79.0137 24.2428 78.9943 24.1453 78.9943 24.0467C78.9943 23.9482 79.0137 23.8507 79.0514 23.7596C79.0891 23.6686 79.1443 23.5859 79.214 23.5162L83.017 19.7122C83.1605 19.5769 83.3502 19.5015 83.5475 19.5015C83.7447 19.5015 83.9345 19.5769 84.078 19.7122L87.882 23.5172C87.9872 23.6222 88.0589 23.756 88.0879 23.9018C88.1169 24.0476 88.102 24.1986 88.045 24.3359C87.988 24.4731 87.8915 24.5904 87.7677 24.6727C87.644 24.755 87.4986 24.7987 87.35 24.7982V24.7982Z" fill="#F9C7C5"/>
<path d="M94.957 24.7983C94.8583 24.7985 94.7606 24.7792 94.6695 24.7415C94.5783 24.7037 94.4956 24.6482 94.426 24.5783L91.154 21.3043L87.881 24.5773C87.8113 24.6469 87.7286 24.7022 87.6376 24.7399C87.5466 24.7776 87.449 24.797 87.3505 24.797C87.252 24.797 87.1544 24.7776 87.0634 24.7399C86.9724 24.7022 86.8897 24.6469 86.82 24.5773C86.7503 24.5076 86.6951 24.4249 86.6574 24.3339C86.6197 24.2428 86.6003 24.1453 86.6003 24.0468C86.6003 23.9482 86.6197 23.8507 86.6574 23.7597C86.6951 23.6686 86.7503 23.5859 86.82 23.5163L90.624 19.7123C90.7646 19.5718 90.9552 19.4929 91.154 19.4929C91.3527 19.4929 91.5434 19.5718 91.684 19.7123L95.487 23.5173C95.5921 23.6221 95.6637 23.7558 95.6928 23.9013C95.7219 24.0469 95.7071 24.1978 95.6504 24.335C95.5936 24.4722 95.4974 24.5894 95.374 24.6719C95.2506 24.7543 95.1054 24.7983 94.957 24.7983V24.7983Z" fill="#F9C7C5"/>
<path d="M102.562 24.7982C102.464 24.7983 102.366 24.7789 102.275 24.7411C102.185 24.7034 102.102 24.648 102.033 24.5782L98.76 21.3042L95.487 24.5772C95.4173 24.6469 95.3346 24.7021 95.2436 24.7398C95.1526 24.7775 95.055 24.7969 94.9565 24.7969C94.858 24.7969 94.7604 24.7775 94.6694 24.7398C94.5784 24.7021 94.4957 24.6469 94.426 24.5772C94.3563 24.5075 94.3011 24.4248 94.2634 24.3338C94.2257 24.2428 94.2063 24.1452 94.2063 24.0467C94.2063 23.9482 94.2257 23.8506 94.2634 23.7596C94.3011 23.6686 94.3563 23.5859 94.426 23.5162L98.23 19.7122C98.2996 19.6425 98.3822 19.5873 98.4731 19.5495C98.5641 19.5118 98.6615 19.4924 98.76 19.4924C98.8584 19.4924 98.9559 19.5118 99.0469 19.5495C99.1378 19.5873 99.2204 19.6425 99.29 19.7122L103.094 23.5172C103.199 23.6221 103.271 23.756 103.3 23.9017C103.329 24.0475 103.314 24.1986 103.257 24.3358C103.2 24.4731 103.103 24.5903 102.98 24.6726C102.856 24.755 102.711 24.7986 102.562 24.7982V24.7982Z" fill="#F9C7C5"/>
<path d="M110.17 24.7983C110.071 24.7984 109.974 24.779 109.883 24.7413C109.792 24.7035 109.709 24.6481 109.64 24.5783L106.367 21.3043L103.095 24.5773C102.954 24.718 102.763 24.797 102.564 24.797C102.366 24.797 102.175 24.718 102.034 24.5773C101.893 24.4366 101.814 24.2457 101.814 24.0468C101.814 23.8478 101.893 23.657 102.034 23.5163L105.837 19.7123C105.978 19.5718 106.168 19.4929 106.367 19.4929C106.566 19.4929 106.756 19.5718 106.897 19.7123L110.701 23.5173C110.806 23.6222 110.878 23.7559 110.907 23.9016C110.936 24.0472 110.921 24.1982 110.864 24.3355C110.807 24.4727 110.711 24.5899 110.587 24.6723C110.464 24.7547 110.319 24.7985 110.17 24.7983V24.7983Z" fill="#F9C7C5"/>
<path d="M150.494 29.14C149.663 29.14 148.949 29.014 148.352 28.762C147.755 28.51 147.302 28.1787 146.994 27.768C146.686 27.3573 146.523 26.914 146.504 26.438C146.504 26.354 146.532 26.284 146.588 26.228C146.644 26.172 146.714 26.144 146.798 26.144H148.044C148.156 26.144 148.24 26.1673 148.296 26.214C148.361 26.2513 148.422 26.3167 148.478 26.41C148.571 26.7273 148.786 26.9933 149.122 27.208C149.458 27.4227 149.915 27.53 150.494 27.53C151.157 27.53 151.656 27.4227 151.992 27.208C152.328 26.984 152.496 26.676 152.496 26.284C152.496 26.0227 152.407 25.808 152.23 25.64C152.062 25.472 151.805 25.3273 151.46 25.206C151.124 25.0847 150.62 24.9353 149.948 24.758C148.847 24.4967 148.039 24.1513 147.526 23.722C147.022 23.2833 146.77 22.6627 146.77 21.86C146.77 21.3187 146.915 20.838 147.204 20.418C147.503 19.998 147.927 19.6667 148.478 19.424C149.038 19.1813 149.687 19.06 150.424 19.06C151.189 19.06 151.852 19.1953 152.412 19.466C152.972 19.7367 153.397 20.0773 153.686 20.488C153.985 20.8893 154.143 21.2907 154.162 21.692C154.162 21.776 154.134 21.846 154.078 21.902C154.022 21.958 153.952 21.986 153.868 21.986H152.566C152.37 21.986 152.235 21.8973 152.16 21.72C152.104 21.4213 151.917 21.174 151.6 20.978C151.283 20.7727 150.891 20.67 150.424 20.67C149.901 20.67 149.491 20.768 149.192 20.964C148.893 21.16 148.744 21.4447 148.744 21.818C148.744 22.0793 148.819 22.294 148.968 22.462C149.117 22.63 149.351 22.7793 149.668 22.91C149.995 23.0407 150.461 23.1853 151.068 23.344C151.889 23.5307 152.543 23.7407 153.028 23.974C153.523 24.2073 153.887 24.5013 154.12 24.856C154.353 25.2107 154.47 25.6633 154.47 26.214C154.47 26.8113 154.302 27.334 153.966 27.782C153.639 28.2207 153.173 28.5567 152.566 28.79C151.969 29.0233 151.278 29.14 150.494 29.14ZM159.126 29.14C158.034 29.14 157.19 28.86 156.592 28.3C155.995 27.7307 155.673 26.956 155.626 25.976L155.612 25.36L155.626 24.744C155.673 23.7733 156 23.0033 156.606 22.434C157.213 21.8647 158.053 21.58 159.126 21.58C160.2 21.58 161.04 21.8647 161.646 22.434C162.253 23.0033 162.58 23.7733 162.626 24.744C162.636 24.856 162.64 25.0613 162.64 25.36C162.64 25.6587 162.636 25.864 162.626 25.976C162.58 26.956 162.258 27.7307 161.66 28.3C161.063 28.86 160.218 29.14 159.126 29.14ZM159.126 27.754C159.621 27.754 160.004 27.6 160.274 27.292C160.545 26.9747 160.694 26.5127 160.722 25.906C160.732 25.8127 160.736 25.6307 160.736 25.36C160.736 25.0893 160.732 24.9073 160.722 24.814C160.694 24.2073 160.545 23.75 160.274 23.442C160.004 23.1247 159.621 22.966 159.126 22.966C158.632 22.966 158.249 23.1247 157.978 23.442C157.708 23.75 157.558 24.2073 157.53 24.814L157.516 25.36L157.53 25.906C157.558 26.5127 157.708 26.9747 157.978 27.292C158.249 27.6 158.632 27.754 159.126 27.754ZM164.542 29C164.448 29 164.369 28.9673 164.304 28.902C164.238 28.8367 164.206 28.7573 164.206 28.664V19.396C164.206 19.2933 164.238 19.214 164.304 19.158C164.369 19.0927 164.448 19.06 164.542 19.06H165.704C165.806 19.06 165.886 19.0927 165.942 19.158C166.007 19.214 166.04 19.2933 166.04 19.396V28.664C166.04 28.7573 166.007 28.8367 165.942 28.902C165.886 28.9673 165.806 29 165.704 29H164.542ZM170.599 29.14C169.74 29.14 169.063 28.86 168.569 28.3C168.074 27.7307 167.827 26.9607 167.827 25.99V22.056C167.827 21.9627 167.859 21.8833 167.925 21.818C167.99 21.7527 168.069 21.72 168.163 21.72H169.395C169.497 21.72 169.577 21.7527 169.633 21.818C169.698 21.874 169.731 21.9533 169.731 22.056V25.906C169.731 27.0633 170.239 27.642 171.257 27.642C171.742 27.642 172.125 27.488 172.405 27.18C172.694 26.872 172.839 26.4473 172.839 25.906V22.056C172.839 21.9627 172.871 21.8833 172.937 21.818C173.002 21.7527 173.081 21.72 173.175 21.72H174.407C174.509 21.72 174.589 21.7527 174.645 21.818C174.71 21.874 174.743 21.9533 174.743 22.056V28.664C174.743 28.7573 174.71 28.8367 174.645 28.902C174.589 28.9673 174.509 29 174.407 29H173.273C173.179 29 173.1 28.9673 173.035 28.902C172.969 28.8367 172.937 28.7573 172.937 28.664V28.09C172.414 28.79 171.635 29.14 170.599 29.14ZM179.882 29C179.033 29 178.393 28.7807 177.964 28.342C177.544 27.894 177.334 27.2407 177.334 26.382V23.204H176.228C176.135 23.204 176.055 23.1713 175.99 23.106C175.925 23.0313 175.892 22.9473 175.892 22.854V22.056C175.892 21.9627 175.925 21.8833 175.99 21.818C176.055 21.7527 176.135 21.72 176.228 21.72H177.334V19.396C177.334 19.2933 177.367 19.214 177.432 19.158C177.497 19.0927 177.577 19.06 177.67 19.06H178.804C178.907 19.06 178.986 19.0927 179.042 19.158C179.107 19.214 179.14 19.2933 179.14 19.396V21.72H180.89C180.993 21.72 181.072 21.7527 181.128 21.818C181.193 21.874 181.226 21.9533 181.226 22.056V22.854C181.226 22.9567 181.193 23.0407 181.128 23.106C181.063 23.1713 180.983 23.204 180.89 23.204H179.14V26.242C179.14 26.6433 179.21 26.9467 179.35 27.152C179.49 27.3573 179.723 27.46 180.05 27.46H181.016C181.109 27.46 181.189 27.4927 181.254 27.558C181.319 27.6233 181.352 27.7027 181.352 27.796V28.664C181.352 28.7573 181.319 28.8367 181.254 28.902C181.198 28.9673 181.119 29 181.016 29H179.882ZM182.874 20.516C182.781 20.516 182.701 20.4833 182.636 20.418C182.571 20.3527 182.538 20.2733 182.538 20.18V19.172C182.538 19.0787 182.571 18.9993 182.636 18.934C182.701 18.8687 182.781 18.836 182.874 18.836H184.148C184.241 18.836 184.321 18.8687 184.386 18.934C184.461 18.9993 184.498 19.0787 184.498 19.172V20.18C184.498 20.2733 184.465 20.3527 184.4 20.418C184.335 20.4833 184.251 20.516 184.148 20.516H182.874ZM182.93 29C182.837 29 182.757 28.9673 182.692 28.902C182.627 28.8367 182.594 28.7573 182.594 28.664V22.056C182.594 21.9627 182.627 21.8833 182.692 21.818C182.757 21.7527 182.837 21.72 182.93 21.72H184.092C184.195 21.72 184.274 21.7527 184.33 21.818C184.395 21.874 184.428 21.9533 184.428 22.056V28.664C184.428 28.7573 184.395 28.8367 184.33 28.902C184.274 28.9673 184.195 29 184.092 29H182.93ZM189.505 29.14C188.413 29.14 187.569 28.86 186.971 28.3C186.374 27.7307 186.052 26.956 186.005 25.976L185.991 25.36L186.005 24.744C186.052 23.7733 186.379 23.0033 186.985 22.434C187.592 21.8647 188.432 21.58 189.505 21.58C190.579 21.58 191.419 21.8647 192.025 22.434C192.632 23.0033 192.959 23.7733 193.005 24.744C193.015 24.856 193.019 25.0613 193.019 25.36C193.019 25.6587 193.015 25.864 193.005 25.976C192.959 26.956 192.637 27.7307 192.039 28.3C191.442 28.86 190.597 29.14 189.505 29.14ZM189.505 27.754C190 27.754 190.383 27.6 190.653 27.292C190.924 26.9747 191.073 26.5127 191.101 25.906C191.111 25.8127 191.115 25.6307 191.115 25.36C191.115 25.0893 191.111 24.9073 191.101 24.814C191.073 24.2073 190.924 23.75 190.653 23.442C190.383 23.1247 190 22.966 189.505 22.966C189.011 22.966 188.628 23.1247 188.357 23.442C188.087 23.75 187.937 24.2073 187.909 24.814L187.895 25.36L187.909 25.906C187.937 26.5127 188.087 26.9747 188.357 27.292C188.628 27.6 189.011 27.754 189.505 27.754ZM194.906 29C194.813 29 194.734 28.9673 194.668 28.902C194.603 28.8367 194.57 28.7573 194.57 28.664V22.056C194.57 21.9627 194.603 21.8833 194.668 21.818C194.734 21.7527 194.813 21.72 194.906 21.72H196.054C196.148 21.72 196.227 21.7527 196.292 21.818C196.358 21.8833 196.39 21.9627 196.39 22.056V22.63C196.941 21.93 197.72 21.58 198.728 21.58C199.587 21.58 200.268 21.8647 200.772 22.434C201.276 22.994 201.528 23.7593 201.528 24.73V28.664C201.528 28.7573 201.496 28.8367 201.43 28.902C201.374 28.9673 201.295 29 201.192 29H199.96C199.867 29 199.788 28.9673 199.722 28.902C199.657 28.8367 199.624 28.7573 199.624 28.664V24.814C199.624 24.2633 199.489 23.8387 199.218 23.54C198.957 23.232 198.574 23.078 198.07 23.078C197.576 23.078 197.184 23.232 196.894 23.54C196.614 23.848 196.474 24.2727 196.474 24.814V28.664C196.474 28.7573 196.442 28.8367 196.376 28.902C196.32 28.9673 196.241 29 196.138 29H194.906Z" fill="#3F54A3"/>
</svg>
